<svg width="482" height="295" viewBox="0 0 482 295" fill="none" xmlns="http://www.w3.org/2000/svg">
<path d="M100.623 279.064C99.8488 279.064 99.1061 278.757 98.5585 278.209C98.0109 277.661 97.7032 276.919 97.7032 276.144V120.275C97.7032 119.5 98.0109 118.758 98.5585 118.21C99.1061 117.662 99.8488 117.355 100.623 117.355C101.398 117.355 102.14 117.662 102.688 118.21C103.236 118.758 103.543 119.5 103.543 120.275V276.144C103.543 276.919 103.236 277.661 102.688 278.209C102.14 278.757 101.398 279.064 100.623 279.064Z" fill="#995F5B"/>
<path d="M225.336 279.064C224.562 279.064 223.819 278.757 223.272 278.209C222.724 277.662 222.416 276.919 222.416 276.144V205.305C222.416 204.531 222.724 203.788 223.272 203.24C223.819 202.693 224.562 202.385 225.336 202.385C226.111 202.385 226.854 202.693 227.401 203.24C227.949 203.788 228.256 204.531 228.256 205.305V276.144C228.256 276.919 227.949 277.662 227.401 278.209C226.854 278.757 226.111 279.064 225.336 279.064Z" fill="#995F5B"/>
<path d="M272.29 224.344C262.041 214.27 248.696 200.984 238.798 191.143H251.12C252.228 191.14 253.311 190.809 254.231 190.191C255.151 189.573 255.867 188.696 256.289 187.671C256.711 186.646 256.82 185.519 256.601 184.432C256.383 183.346 255.847 182.348 255.062 181.566C246.594 173.244 234.768 161.534 228.782 155.286C228.263 154.759 227.645 154.342 226.963 154.056C226.281 153.771 225.55 153.624 224.811 153.624C224.072 153.624 223.34 153.771 222.659 154.056C221.977 154.342 221.359 154.759 220.84 155.286L194.56 181.566C193.771 182.352 193.234 183.354 193.018 184.446C192.801 185.539 192.915 186.67 193.344 187.698C193.773 188.725 194.498 189.601 195.427 190.215C196.356 190.829 197.447 191.152 198.56 191.143H210.707L177.507 224.373C176.242 225.591 175.373 227.162 175.012 228.88C174.651 230.598 174.815 232.386 175.483 234.01C176.15 235.634 177.29 237.02 178.755 237.988C180.219 238.957 181.941 239.462 183.697 239.44H266.129C267.888 239.463 269.614 238.955 271.081 237.983C272.548 237.011 273.688 235.62 274.353 233.991C275.017 232.362 275.176 230.57 274.808 228.849C274.441 227.129 273.563 225.559 272.29 224.344Z" fill="#557831"/>
<path d="M178.441 168.98C167.082 157.797 153.417 144.277 140.656 131.604H154.059C156.345 131.572 158.572 130.87 160.462 129.584C162.353 128.299 163.825 126.487 164.695 124.373C165.566 122.259 165.797 119.936 165.359 117.691C164.922 115.447 163.836 113.381 162.235 111.748C149.183 98.9004 132.334 82.2272 119.37 69.2624H134.32C135.792 69.2696 137.232 68.8371 138.456 68.0203C139.68 67.2036 140.633 66.0398 141.191 64.6782C141.749 63.3167 141.888 61.8193 141.59 60.3782C141.292 58.9371 140.57 57.6179 139.518 56.5896C128.305 45.5228 112.595 29.9884 104.478 21.8416C103.786 21.1486 102.964 20.5987 102.06 20.2236C101.156 19.8484 100.186 19.6553 99.207 19.6553C98.2278 19.6553 97.2583 19.8484 96.3539 20.2236C95.4495 20.5987 94.628 21.1486 93.9364 21.8416L59.2468 56.6188C58.2023 57.6505 57.4888 58.9699 57.1975 60.4087C56.9061 61.8475 57.05 63.3406 57.6109 64.6973C58.1717 66.054 59.1241 67.2128 60.3464 68.0259C61.5687 68.839 63.0055 69.2695 64.4736 69.2624H79.0736L36.5 111.807C34.9171 113.444 33.8472 115.508 33.422 117.745C32.9967 119.982 33.2347 122.294 34.1065 124.398C34.9783 126.502 36.4461 128.304 38.3291 129.585C40.2121 130.865 42.4284 131.567 44.7052 131.604H57.6992L20.2648 169.039C18.2194 171.079 16.8253 173.68 16.2589 176.513C15.6924 179.346 15.9791 182.283 17.0827 184.953C18.1863 187.623 20.0571 189.905 22.4584 191.511C24.8597 193.117 27.6835 193.975 30.5724 193.976H168.163C171.061 193.981 173.896 193.123 176.305 191.512C178.715 189.901 180.59 187.609 181.692 184.928C182.795 182.248 183.074 179.299 182.495 176.459C181.916 173.619 180.505 171.016 178.441 168.98Z" fill="#557831"/>
<path d="M336.646 80.0656C336.274 79.9993 335.892 80.007 335.522 80.0883C335.153 80.1697 334.803 80.323 334.493 80.5397C334.182 80.7563 333.918 81.032 333.714 81.3509C333.511 81.6699 333.372 82.0258 333.306 82.3984L310.957 208.6V209.09C310.912 210.505 310.308 211.846 309.277 212.817C308.246 213.789 306.872 214.312 305.456 214.274H294.31V122.114C294.31 121.35 294.007 120.617 293.467 120.077C292.927 119.537 292.194 119.234 291.43 119.234C290.667 119.234 289.934 119.537 289.394 120.077C288.854 120.617 288.55 121.35 288.55 122.114V214.274H277.52C276.104 214.312 274.73 213.789 273.699 212.817C272.669 211.846 272.064 210.505 272.019 209.09L246.733 65.6368C246.603 64.873 246.175 64.192 245.543 63.7437C244.911 63.2955 244.127 63.1166 243.363 63.2464C242.599 63.3763 241.918 63.8042 241.47 64.4361C241.022 65.0681 240.843 65.8522 240.973 66.616L266.086 209.291C266.206 212.215 267.474 214.973 269.615 216.968C271.755 218.962 274.595 220.033 277.52 219.947H288.637V275.762C288.637 276.525 288.94 277.258 289.48 277.798C290.02 278.338 290.753 278.642 291.517 278.642C292.281 278.642 293.013 278.338 293.553 277.798C294.093 277.258 294.397 276.525 294.397 275.762V219.947H305.485C308.38 219.987 311.176 218.896 313.279 216.906C315.382 214.916 316.626 212.184 316.746 209.291L339.066 83.4064C339.131 83.0276 339.12 82.6396 339.034 82.2651C338.947 81.8906 338.786 81.5372 338.561 81.2259C338.335 80.9145 338.05 80.6515 337.721 80.4522C337.392 80.2529 337.027 80.1215 336.646 80.0656Z" fill="#995F5B"/>
<path d="M443.523 158.085C443.151 158.018 442.769 158.026 442.399 158.107C442.03 158.189 441.68 158.342 441.369 158.559C441.059 158.775 440.795 159.051 440.591 159.37C440.387 159.689 440.248 160.045 440.182 160.418L426.877 235.528V236.018C426.847 236.55 426.611 237.049 426.218 237.41C425.825 237.77 425.307 237.963 424.774 237.947H408.07C407.538 237.963 407.02 237.77 406.627 237.41C406.234 237.049 405.998 236.55 405.968 236.018L390.934 150.424C390.801 149.66 390.369 148.981 389.734 148.535C389.1 148.089 388.314 147.914 387.55 148.048C386.787 148.182 386.107 148.613 385.662 149.248C385.216 149.882 385.041 150.668 385.174 151.432L400.208 236.306C400.312 238.315 401.188 240.206 402.653 241.585C404.118 242.965 406.059 243.725 408.07 243.707H413.514V275.762C413.514 276.525 413.817 277.258 414.357 277.798C414.897 278.338 415.63 278.642 416.394 278.642C417.157 278.642 417.89 278.338 418.43 277.798C418.97 277.258 419.274 276.525 419.274 275.762V243.707H424.717C426.729 243.725 428.67 242.965 430.135 241.585C431.6 240.206 432.475 238.315 432.579 236.306L445.856 161.426C445.922 161.053 445.915 160.671 445.833 160.301C445.752 159.932 445.599 159.582 445.382 159.272C445.165 158.961 444.89 158.697 444.571 158.493C444.252 158.29 443.896 158.151 443.523 158.085Z" fill="#995F5B"/>
<path d="M288.32 25.1152C287.888 24.9424 287.456 24.6832 286.966 24.5104C266.374 16.8496 241.549 32.3728 226.486 72.8368C211.424 113.301 228.272 169.49 232.419 171.045C234.666 171.851 250.074 163.067 266.173 148.466C276.771 167.819 288.781 181.413 291.171 181.355C293.562 181.298 304.563 167.358 314.038 147.774C331.088 161.742 347.302 169.864 349.52 168.885C353.581 167.128 367.29 110.075 350.038 70.504C333.104 31.8256 308.25 17.512 288.32 25.1152Z" fill="#C5A319"/>
<path d="M451.27 153.534C441.219 130.494 426.416 121.854 414.55 126.52L413.744 126.146C401.36 121.595 386.672 130.84 377.715 154.917C368.758 178.994 378.781 212.517 381.258 213.41C382.582 213.899 391.77 208.629 401.418 199.931C407.754 211.451 414.896 219.573 416.336 219.544C417.776 219.515 424.285 211.221 429.93 199.557C440.096 207.88 449.744 212.718 451.069 212.142C453.402 211.077 461.552 177.093 451.27 153.534Z" fill="#C5A319"/>
<path d="M275.549 200.631C275.73 199.416 275.813 198.188 275.8 196.96C275.801 193.46 275.03 190.003 273.54 186.835C272.051 183.667 269.881 180.867 267.185 178.635C264.489 176.403 261.334 174.794 257.944 173.922C254.554 173.05 251.013 172.937 247.575 173.591C244.136 174.245 240.885 175.65 238.052 177.706C235.219 179.762 232.875 182.418 231.187 185.484C229.499 188.551 228.509 191.952 228.287 195.445C228.065 198.938 228.617 202.437 229.904 205.692C226.071 206.396 222.47 208.032 219.418 210.456C216.367 212.879 213.958 216.016 212.405 219.591C210.852 223.165 210.202 227.066 210.512 230.95C210.822 234.835 212.083 238.584 214.184 241.866C216.284 245.148 219.16 247.863 222.558 249.772C225.955 251.681 229.77 252.725 233.666 252.811C237.562 252.898 241.42 252.025 244.899 250.269C248.378 248.513 251.371 245.928 253.616 242.742C257.103 244.68 261.026 245.7 265.016 245.706C270.398 245.718 275.626 243.901 279.841 240.554C284.056 237.206 287.01 232.526 288.218 227.281C289.426 222.035 288.817 216.535 286.49 211.681C284.164 206.827 280.258 202.907 275.412 200.562L275.549 200.631Z" fill="#C8DA52"/>
<path d="M231.386 162.19C231.385 153.894 229.049 145.765 224.646 138.733C220.244 131.702 213.951 126.051 206.488 122.427C206.833 120.201 207.016 117.953 207.035 115.701C207.046 109.181 205.617 102.74 202.849 96.8376C200.081 90.935 196.043 85.7167 191.024 81.556C186.005 77.3953 180.129 74.3949 173.816 72.7692C167.502 71.1435 160.908 70.9328 154.504 72.1521C148.099 73.3714 142.043 75.9906 136.769 79.8224C131.495 83.6542 127.132 88.604 123.993 94.3179C120.854 100.032 119.016 106.369 118.611 112.875C118.206 119.382 119.243 125.898 121.649 131.957C114.507 133.257 107.795 136.295 102.104 140.803C96.4139 145.31 91.9204 151.149 89.0204 157.804C86.1203 164.459 84.9028 171.726 85.4753 178.962C86.0478 186.199 88.3926 193.184 92.303 199.3C96.2134 205.416 101.569 210.476 107.897 214.033C114.226 217.59 121.332 219.535 128.59 219.695C135.848 219.856 143.033 218.228 149.513 214.955C155.993 211.682 161.567 206.864 165.744 200.927C172.483 204.647 180.076 206.545 187.773 206.433C195.47 206.321 203.004 204.204 209.632 200.29C216.261 196.376 221.753 190.801 225.568 184.116C229.383 177.43 231.388 169.865 231.386 162.167V162.19Z" fill="#C8DA52"/>
<path d="M192.01 153.298C191.715 153.238 191.411 153.238 191.116 153.296C190.821 153.354 190.54 153.471 190.29 153.638C190.039 153.806 189.825 154.021 189.659 154.272C189.492 154.522 189.377 154.804 189.32 155.099C186.059 171.378 172.47 181.479 166.656 185.127C164.442 167.203 158.509 149.94 149.237 134.442C148.921 133.93 148.416 133.563 147.83 133.423C147.245 133.282 146.628 133.378 146.114 133.69C145.597 134.002 145.226 134.506 145.081 135.092C144.936 135.677 145.028 136.296 145.338 136.814C181.818 197.051 152.178 271.22 151.814 271.972C151.588 272.531 151.593 273.157 151.828 273.713C152.063 274.269 152.509 274.708 153.068 274.936C153.624 275.163 154.248 275.161 154.803 274.93C155.358 274.7 155.8 274.259 156.032 273.705C156.26 273.158 171.718 234.648 167.249 190.12C172.128 187.361 189.753 176.166 193.788 155.92C193.89 155.338 193.761 154.739 193.429 154.25C193.097 153.761 192.588 153.419 192.01 153.298Z" fill="#995F5B"/>
<path d="M275.8 222.245C275.885 221.641 275.726 221.027 275.358 220.54C274.99 220.052 274.444 219.731 273.839 219.646C273.54 219.604 273.235 219.622 272.942 219.697C272.65 219.773 272.375 219.906 272.134 220.088C271.646 220.456 271.325 221.002 271.24 221.607C269.667 232.733 260.57 237.567 256.808 239.072C256.896 227.836 255.78 216.622 253.479 205.624C253.441 205.31 253.338 205.008 253.176 204.737C253.015 204.465 252.799 204.23 252.542 204.046C252.286 203.862 251.993 203.734 251.684 203.669C251.375 203.604 251.056 203.604 250.747 203.669C250.437 203.734 250.145 203.862 249.888 204.046C249.631 204.23 249.416 204.465 249.255 204.737C249.093 205.009 248.99 205.311 248.952 205.625C248.914 205.938 248.942 206.256 249.033 206.559C253.221 228.354 253.136 250.756 248.782 272.519C248.726 272.814 248.729 273.117 248.79 273.411C248.852 273.705 248.97 273.984 249.14 274.232C249.309 274.48 249.526 274.692 249.778 274.856C250.029 275.019 250.311 275.132 250.606 275.187C250.749 275.211 250.896 275.211 251.039 275.187C251.576 275.197 252.099 275.017 252.516 274.679C252.933 274.341 253.217 273.867 253.319 273.34C255.165 263.633 256.278 253.802 256.648 243.928C258.609 243.335 273.52 238.205 275.8 222.245Z" fill="#995F5B"/>
</svg>
