<svg width="547" height="61" viewBox="0 0 547 61" fill="none" xmlns="http://www.w3.org/2000/svg">
<path d="M498.573 61C482.591 61 466.611 53.7808 453.273 39.3395C453.262 39.328 453.252 39.3172 453.242 39.3071C432.466 16.7963 403.443 16.797 382.667 39.3078C382.665 39.3099 382.663 39.3121 382.661 39.3143C355.987 68.2156 318.728 68.2243 292.045 39.3439C292.034 39.3323 292.023 39.3201 292.012 39.3085C271.234 16.7964 242.212 16.7978 221.436 39.3085C221.418 39.3273 221.401 39.346 221.383 39.3648C208.052 53.7844 192.078 60.995 176.11 60.9971C160.118 60.9986 144.131 53.7707 130.787 39.3128C130.779 39.3042 130.772 39.2962 130.764 39.2876C110.002 16.8115 81.0182 16.8043 60.2501 39.2631C60.2349 39.2797 60.2197 39.2962 60.2045 39.3128C46.8635 53.7671 30.8704 60.9957 14.8826 60.9964C-1.1094 60.9978 -17.0967 53.7693 -30.4409 39.3107C-51.2185 16.7985 -80.2408 16.7985 -101.019 39.31C-101.027 39.3186 -101.035 39.3273 -101.043 39.3359C-114.38 53.7765 -130.364 60.9957 -146.344 60.9971C-162.335 60.9986 -178.322 53.7707 -191.666 39.3128C-191.68 39.2977 -191.695 39.2825 -191.708 39.2674C-212.484 16.7971 -241.482 16.8122 -262.247 39.31C-262.262 39.3258 -262.277 39.3424 -262.291 39.3583C-288.973 68.2235 -326.223 68.2105 -352.894 39.3135C-356.422 35.491 -357.036 28.4465 -354.265 23.5796C-351.495 18.7127 -346.389 17.8646 -342.861 21.6878C-322.083 44.1992 -293.061 44.1985 -272.284 21.6878C-272.272 21.6748 -272.26 21.6618 -272.247 21.6488C-245.565 -7.22579 -208.31 -7.21565 -181.636 21.6849C-181.619 21.703 -181.603 21.7217 -181.585 21.7405C-160.811 44.1992 -131.817 44.1826 -111.056 21.6893C-111.049 21.682 -111.043 21.6748 -111.036 21.6676C-84.353 -7.2294 -47.0885 -7.22216 -20.4074 21.6871C0.357052 44.1848 29.3569 44.2007 50.1329 21.7297C50.1465 21.7145 50.16 21.6994 50.1736 21.6849C76.8589 -7.2272 114.134 -7.22648 140.818 21.6849C140.821 21.6878 140.824 21.6907 140.826 21.6943C161.604 44.1985 190.623 44.1978 211.399 21.6886C211.419 21.6655 211.441 21.6423 211.462 21.62C238.129 -7.21495 275.346 -7.20485 302.009 21.6445C302.023 21.6597 302.037 21.6748 302.051 21.6893C322.829 44.2014 351.851 44.2 372.628 21.6893C372.639 21.677 372.65 21.6654 372.661 21.6539C399.333 -7.21568 436.573 -7.21856 463.246 21.6503C463.26 21.6654 463.274 21.6799 463.286 21.6922C484.062 44.2029 513.084 44.2029 533.861 21.6922C537.388 17.8696 542.495 18.7177 545.265 23.5839C548.036 28.4508 547.422 35.4954 543.894 39.3179C530.551 53.7722 514.562 61 498.573 61Z" fill="#EBE3A1"/>
</svg>
